# xmcd
#
# Track frame offsets:
#	150
#	15730
#	32780
#	52402
#	70600
#	86970
#	104190
#	129300
#
# Disc length: 1960 seconds
#
# Revision: 1
# Processed by: cddbd v1.5.2PL0 Copyright (c) Steve Scherf et al.
# Submitted via: audiograbber 1.83.01
#
DISCID=7307a608
DTITLE=Selwyn - Meant To Be [Bonus Disc]
DYEAR=2002
DGENRE=R&B
TTITLE0=Rich Girl - Rudy Remix
TTITLE1=Buggin' Me - Hype Music Extended Mix
TTITLE2=Way Love's Supposed To Be - Bsyde West Coast Mix
TTITLE3=Your Booty Is Buggin' Me - U.W.M.S.C. Mix
TTITLE4=Rich Girl - Anna Nicole Mix
TTITLE5=Way Love's Supposed To Be - Isaac James Edit
TTITLE6=Rich Girl - K-Warren 12''
TTITLE7=Way Love's Supposed To Be - By The Way
EXTD=
EXTT0=
EXTT1=
EXTT2=
EXTT3=
EXTT4=
EXTT5=
EXTT6=
EXTT7=
PLAYORDER=
